<mxfile host="app.diagrams.net" agent="Mozilla/5.0 (Windows NT 10.0; Win64; x64) AppleWebKit/537.36 (KHTML, like Gecko) Chrome/136.0.0.0 Safari/537.36" version="27.0.6">
  <diagram name="Trang-1" id="Rjtv7kPW5MO5_HOJrIrt">
    <mxGraphModel dx="1256" dy="562" grid="0" gridSize="10" guides="1" tooltips="1" connect="1" arrows="1" fold="1" page="0" pageScale="1" pageWidth="827" pageHeight="1169" math="0" shadow="0">
      <root>
        <mxCell id="0" />
        <mxCell id="1" parent="0" />
        <mxCell id="wsbvk6EjyKYahkIG3gAJ-1" value="" style="rounded=0;whiteSpace=wrap;html=1;fontSize=7;strokeWidth=1;opacity=60;" vertex="1" parent="1">
          <mxGeometry x="40" y="80" width="610" height="120" as="geometry" />
        </mxCell>
        <mxCell id="wsbvk6EjyKYahkIG3gAJ-2" value="" style="endArrow=none;html=1;rounded=0;exitX=0;exitY=0.5;exitDx=0;exitDy=0;entryX=1;entryY=0.5;entryDx=0;entryDy=0;fontSize=7;strokeWidth=1;opacity=60;" edge="1" parent="1" source="wsbvk6EjyKYahkIG3gAJ-1" target="wsbvk6EjyKYahkIG3gAJ-1">
          <mxGeometry width="50" height="50" relative="1" as="geometry">
            <mxPoint x="330" y="370" as="sourcePoint" />
            <mxPoint x="380" y="320" as="targetPoint" />
          </mxGeometry>
        </mxCell>
        <mxCell id="wsbvk6EjyKYahkIG3gAJ-3" value="Log in" style="rounded=1;whiteSpace=wrap;html=1;fontSize=7;strokeWidth=1;opacity=60;" vertex="1" parent="1">
          <mxGeometry x="120" y="100" width="40" height="20" as="geometry" />
        </mxCell>
        <mxCell id="wsbvk6EjyKYahkIG3gAJ-5" value="" style="endArrow=none;html=1;rounded=0;entryX=0.166;entryY=0.001;entryDx=0;entryDy=0;entryPerimeter=0;exitX=0.166;exitY=1.001;exitDx=0;exitDy=0;exitPerimeter=0;fontSize=7;strokeWidth=1;opacity=60;" edge="1" parent="1">
          <mxGeometry width="50" height="50" relative="1" as="geometry">
            <mxPoint x="100.00000000000006" y="200" as="sourcePoint" />
            <mxPoint x="100.00000000000006" y="80" as="targetPoint" />
          </mxGeometry>
        </mxCell>
        <mxCell id="wsbvk6EjyKYahkIG3gAJ-6" value="Patient" style="text;html=1;align=center;verticalAlign=middle;whiteSpace=wrap;rounded=0;fontSize=7;strokeWidth=1;opacity=60;" vertex="1" parent="1">
          <mxGeometry x="40" y="95" width="60" height="30" as="geometry" />
        </mxCell>
        <mxCell id="wsbvk6EjyKYahkIG3gAJ-7" value="System" style="text;html=1;align=center;verticalAlign=middle;whiteSpace=wrap;rounded=0;fontSize=7;strokeWidth=1;opacity=60;" vertex="1" parent="1">
          <mxGeometry x="40" y="155" width="60" height="30" as="geometry" />
        </mxCell>
        <mxCell id="wsbvk6EjyKYahkIG3gAJ-8" value="Show patient&lt;div&gt;home page&lt;/div&gt;" style="rounded=1;whiteSpace=wrap;html=1;fontSize=7;strokeWidth=1;opacity=60;" vertex="1" parent="1">
          <mxGeometry x="190" y="160" width="50" height="20" as="geometry" />
        </mxCell>
        <mxCell id="wsbvk6EjyKYahkIG3gAJ-9" value="Choose to book&lt;div&gt;a check-up&lt;/div&gt;" style="rounded=1;whiteSpace=wrap;html=1;fontSize=7;strokeWidth=1;opacity=60;" vertex="1" parent="1">
          <mxGeometry x="270" y="100" width="60" height="20" as="geometry" />
        </mxCell>
        <mxCell id="wsbvk6EjyKYahkIG3gAJ-10" value="&lt;span style=&quot;font-kerning: none;&quot; class=&quot;OYPEnA font-feature-liga-off font-feature-clig-off font-feature-calt-off text-decoration-none text-strikethrough-none&quot;&gt;Show book check-up page&lt;/span&gt;" style="rounded=1;whiteSpace=wrap;html=1;fontSize=7;align=center;strokeWidth=1;opacity=60;" vertex="1" parent="1">
          <mxGeometry x="360" y="160" width="50" height="20" as="geometry" />
        </mxCell>
        <mxCell id="wsbvk6EjyKYahkIG3gAJ-11" value="&lt;span style=&quot;font-kerning: none;&quot; class=&quot;OYPEnA font-feature-liga-off font-feature-clig-off font-feature-calt-off text-decoration-none text-strikethrough-none&quot;&gt;Choose&lt;/span&gt;&lt;span style=&quot;font-kerning: none;&quot; class=&quot;OYPEnA font-feature-liga-off font-feature-clig-off font-feature-calt-off text-decoration-none text-strikethrough-none&quot;&gt;&amp;nbsp;date, time&lt;/span&gt;" style="rounded=1;whiteSpace=wrap;html=1;fontSize=7;strokeWidth=1;opacity=60;" vertex="1" parent="1">
          <mxGeometry x="440" y="100" width="50" height="20" as="geometry" />
        </mxCell>
        <mxCell id="wsbvk6EjyKYahkIG3gAJ-12" value="&lt;span style=&quot;font-kerning: none;&quot; class=&quot;OYPEnA font-feature-liga-off font-feature-clig-off font-feature-calt-off text-decoration-none text-strikethrough-none&quot;&gt;Show confirm message&lt;/span&gt;" style="rounded=1;whiteSpace=wrap;html=1;fontSize=7;strokeWidth=1;opacity=60;" vertex="1" parent="1">
          <mxGeometry x="520" y="160" width="50" height="20" as="geometry" />
        </mxCell>
        <mxCell id="wsbvk6EjyKYahkIG3gAJ-13" value="&lt;span style=&quot;font-kerning: none;&quot; class=&quot;OYPEnA font-feature-liga-off font-feature-clig-off font-feature-calt-off text-decoration-none text-strikethrough-none&quot;&gt;End&lt;/span&gt;" style="rounded=1;whiteSpace=wrap;html=1;fontSize=7;strokeWidth=1;opacity=60;" vertex="1" parent="1">
          <mxGeometry x="690" y="125" width="50" height="20" as="geometry" />
        </mxCell>
        <mxCell id="wsbvk6EjyKYahkIG3gAJ-14" value="&lt;span style=&quot;font-kerning: none;&quot; class=&quot;OYPEnA font-feature-liga-off font-feature-clig-off font-feature-calt-off text-decoration-none text-strikethrough-none&quot;&gt;Confirm booking&lt;/span&gt;" style="rounded=1;whiteSpace=wrap;html=1;fontSize=7;strokeWidth=1;opacity=60;" vertex="1" parent="1">
          <mxGeometry x="600" y="95" width="30" height="20" as="geometry" />
        </mxCell>
        <mxCell id="wsbvk6EjyKYahkIG3gAJ-15" value="" style="rounded=0;whiteSpace=wrap;html=1;fontSize=7;strokeWidth=1;opacity=60;" vertex="1" parent="1">
          <mxGeometry x="40" y="280" width="690" height="120" as="geometry" />
        </mxCell>
        <mxCell id="wsbvk6EjyKYahkIG3gAJ-16" value="" style="endArrow=none;html=1;rounded=0;entryX=1;entryY=0.5;entryDx=0;entryDy=0;fontSize=7;strokeWidth=1;opacity=60;exitX=0;exitY=0.5;exitDx=0;exitDy=0;" edge="1" parent="1" source="wsbvk6EjyKYahkIG3gAJ-15" target="wsbvk6EjyKYahkIG3gAJ-15">
          <mxGeometry width="50" height="50" relative="1" as="geometry">
            <mxPoint x="80" y="340" as="sourcePoint" />
            <mxPoint x="320" y="520" as="targetPoint" />
          </mxGeometry>
        </mxCell>
        <mxCell id="wsbvk6EjyKYahkIG3gAJ-17" value="Log in" style="rounded=1;whiteSpace=wrap;html=1;fontSize=7;strokeWidth=1;opacity=60;" vertex="1" parent="1">
          <mxGeometry x="120" y="300" width="40" height="20" as="geometry" />
        </mxCell>
        <mxCell id="wsbvk6EjyKYahkIG3gAJ-18" value="" style="endArrow=none;html=1;rounded=0;entryX=0.166;entryY=0.001;entryDx=0;entryDy=0;entryPerimeter=0;exitX=0.166;exitY=1.001;exitDx=0;exitDy=0;exitPerimeter=0;fontSize=7;strokeWidth=1;opacity=60;" edge="1" parent="1">
          <mxGeometry width="50" height="50" relative="1" as="geometry">
            <mxPoint x="99.99999999999991" y="400" as="sourcePoint" />
            <mxPoint x="99.99999999999991" y="280" as="targetPoint" />
          </mxGeometry>
        </mxCell>
        <mxCell id="wsbvk6EjyKYahkIG3gAJ-19" value="Patient" style="text;html=1;align=center;verticalAlign=middle;whiteSpace=wrap;rounded=0;fontSize=7;strokeWidth=1;opacity=60;" vertex="1" parent="1">
          <mxGeometry x="40" y="295" width="60" height="30" as="geometry" />
        </mxCell>
        <mxCell id="wsbvk6EjyKYahkIG3gAJ-20" value="System" style="text;html=1;align=center;verticalAlign=middle;whiteSpace=wrap;rounded=0;fontSize=7;strokeWidth=1;opacity=60;" vertex="1" parent="1">
          <mxGeometry x="40" y="355" width="60" height="30" as="geometry" />
        </mxCell>
        <mxCell id="wsbvk6EjyKYahkIG3gAJ-21" value="Show patient&lt;div&gt;home page&lt;/div&gt;" style="rounded=1;whiteSpace=wrap;html=1;fontSize=7;strokeWidth=1;opacity=60;" vertex="1" parent="1">
          <mxGeometry x="190" y="360" width="50" height="20" as="geometry" />
        </mxCell>
        <mxCell id="wsbvk6EjyKYahkIG3gAJ-22" value="Choose to book&lt;div&gt;an advisory or treatment&lt;/div&gt;" style="rounded=1;whiteSpace=wrap;html=1;fontSize=7;strokeWidth=1;opacity=60;" vertex="1" parent="1">
          <mxGeometry x="270" y="300" width="80" height="20" as="geometry" />
        </mxCell>
        <mxCell id="wsbvk6EjyKYahkIG3gAJ-23" value="Show book advisory or treatment&amp;nbsp;page" style="rounded=1;whiteSpace=wrap;html=1;fontSize=7;align=center;strokeWidth=1;opacity=60;" vertex="1" parent="1">
          <mxGeometry x="380" y="360" width="70" height="20" as="geometry" />
        </mxCell>
        <mxCell id="wsbvk6EjyKYahkIG3gAJ-24" value="&lt;span style=&quot;font-kerning: none;&quot; class=&quot;OYPEnA font-feature-liga-off font-feature-clig-off font-feature-calt-off text-decoration-none text-strikethrough-none&quot;&gt;Choose&lt;/span&gt;&lt;span style=&quot;font-kerning: none;&quot; class=&quot;OYPEnA font-feature-liga-off font-feature-clig-off font-feature-calt-off text-decoration-none text-strikethrough-none white-space-prewrap&quot;&gt;  &lt;/span&gt;&lt;span style=&quot;font-kerning: none;&quot; class=&quot;OYPEnA font-feature-liga-off font-feature-clig-off font-feature-calt-off text-decoration-none text-strikethrough-none&quot;&gt;doctor, date, time, type of appointment&lt;/span&gt;" style="rounded=1;whiteSpace=wrap;html=1;fontSize=7;strokeWidth=1;opacity=60;" vertex="1" parent="1">
          <mxGeometry x="620" y="300" width="90" height="20" as="geometry" />
        </mxCell>
        <mxCell id="wsbvk6EjyKYahkIG3gAJ-25" value="&lt;span style=&quot;font-kerning: none;&quot; class=&quot;OYPEnA font-feature-liga-off font-feature-clig-off font-feature-calt-off text-decoration-none text-strikethrough-none&quot;&gt;Show confirm message&lt;/span&gt;" style="rounded=1;whiteSpace=wrap;html=1;fontSize=7;strokeWidth=1;opacity=60;" vertex="1" parent="1">
          <mxGeometry x="540" y="360" width="50" height="20" as="geometry" />
        </mxCell>
        <mxCell id="wsbvk6EjyKYahkIG3gAJ-27" value="&lt;span style=&quot;font-kerning: none;&quot; class=&quot;OYPEnA font-feature-liga-off font-feature-clig-off font-feature-calt-off text-decoration-none text-strikethrough-none&quot;&gt;Confirm booking&lt;/span&gt;" style="rounded=1;whiteSpace=wrap;html=1;fontSize=7;strokeWidth=1;opacity=60;" vertex="1" parent="1">
          <mxGeometry x="480" y="300" width="30" height="20" as="geometry" />
        </mxCell>
        <mxCell id="wsbvk6EjyKYahkIG3gAJ-28" value="&lt;span style=&quot;font-weight: 700; font-kerning: normal;&quot; class=&quot;OYPEnA font-feature-liga-off font-feature-clig-off font-feature-calt-off text-decoration-none text-strikethrough-none&quot;&gt;Main flow 1: Patient book a check-up date&lt;/span&gt;" style="text;html=1;align=center;verticalAlign=middle;whiteSpace=wrap;rounded=0;" vertex="1" parent="1">
          <mxGeometry x="160" y="220" width="250" height="20" as="geometry" />
        </mxCell>
        <mxCell id="wsbvk6EjyKYahkIG3gAJ-29" value="&lt;span style=&quot;font-weight: 700; font-kerning: normal;&quot; class=&quot;OYPEnA font-feature-liga-off font-feature-clig-off font-feature-calt-off text-decoration-none text-strikethrough-none&quot;&gt;Main flow 2: Patient choose doctor and book an advisory or a treatment date&lt;/span&gt;" style="text;html=1;align=center;verticalAlign=middle;whiteSpace=wrap;rounded=0;" vertex="1" parent="1">
          <mxGeometry x="160" y="420" width="440" height="20" as="geometry" />
        </mxCell>
        <mxCell id="wsbvk6EjyKYahkIG3gAJ-30" value="" style="rounded=0;whiteSpace=wrap;html=1;fontSize=7;strokeWidth=1;opacity=60;" vertex="1" parent="1">
          <mxGeometry x="40" y="480" width="1010" height="120" as="geometry" />
        </mxCell>
        <mxCell id="wsbvk6EjyKYahkIG3gAJ-31" value="" style="endArrow=none;html=1;rounded=0;exitX=0;exitY=0.5;exitDx=0;exitDy=0;entryX=1;entryY=0.5;entryDx=0;entryDy=0;fontSize=7;strokeWidth=1;opacity=60;" edge="1" parent="1" source="wsbvk6EjyKYahkIG3gAJ-30" target="wsbvk6EjyKYahkIG3gAJ-30">
          <mxGeometry width="50" height="50" relative="1" as="geometry">
            <mxPoint x="330" y="770" as="sourcePoint" />
            <mxPoint x="380" y="720" as="targetPoint" />
          </mxGeometry>
        </mxCell>
        <mxCell id="wsbvk6EjyKYahkIG3gAJ-32" value="Log in" style="rounded=1;whiteSpace=wrap;html=1;fontSize=7;strokeWidth=1;opacity=60;" vertex="1" parent="1">
          <mxGeometry x="120" y="500" width="40" height="20" as="geometry" />
        </mxCell>
        <mxCell id="wsbvk6EjyKYahkIG3gAJ-33" value="" style="endArrow=none;html=1;rounded=0;entryX=0.166;entryY=0.001;entryDx=0;entryDy=0;entryPerimeter=0;exitX=0.166;exitY=1.001;exitDx=0;exitDy=0;exitPerimeter=0;fontSize=7;strokeWidth=1;opacity=60;" edge="1" parent="1">
          <mxGeometry width="50" height="50" relative="1" as="geometry">
            <mxPoint x="99.99999999999996" y="600.0000000000001" as="sourcePoint" />
            <mxPoint x="99.99999999999996" y="480.0000000000001" as="targetPoint" />
          </mxGeometry>
        </mxCell>
        <mxCell id="wsbvk6EjyKYahkIG3gAJ-34" value="Patient" style="text;html=1;align=center;verticalAlign=middle;whiteSpace=wrap;rounded=0;fontSize=7;strokeWidth=1;opacity=60;" vertex="1" parent="1">
          <mxGeometry x="40" y="495" width="60" height="30" as="geometry" />
        </mxCell>
        <mxCell id="wsbvk6EjyKYahkIG3gAJ-35" value="System" style="text;html=1;align=center;verticalAlign=middle;whiteSpace=wrap;rounded=0;fontSize=7;strokeWidth=1;opacity=60;" vertex="1" parent="1">
          <mxGeometry x="40" y="555" width="60" height="30" as="geometry" />
        </mxCell>
        <mxCell id="wsbvk6EjyKYahkIG3gAJ-36" value="Show patient&lt;div&gt;list page&lt;/div&gt;" style="rounded=1;whiteSpace=wrap;html=1;fontSize=7;strokeWidth=1;opacity=60;" vertex="1" parent="1">
          <mxGeometry x="190" y="560" width="50" height="20" as="geometry" />
        </mxCell>
        <mxCell id="wsbvk6EjyKYahkIG3gAJ-37" value="Choose a patient to view" style="rounded=1;whiteSpace=wrap;html=1;fontSize=7;strokeWidth=1;opacity=60;" vertex="1" parent="1">
          <mxGeometry x="270" y="500" width="50" height="20" as="geometry" />
        </mxCell>
        <mxCell id="wsbvk6EjyKYahkIG3gAJ-38" value="Show patient profile and test result" style="rounded=1;whiteSpace=wrap;html=1;fontSize=7;align=center;strokeWidth=1;opacity=60;" vertex="1" parent="1">
          <mxGeometry x="350" y="560" width="70" height="20" as="geometry" />
        </mxCell>
        <mxCell id="wsbvk6EjyKYahkIG3gAJ-39" value="Add clinical protocol for patient" style="rounded=1;whiteSpace=wrap;html=1;fontSize=7;strokeWidth=1;opacity=60;" vertex="1" parent="1">
          <mxGeometry x="450" y="500" width="60" height="20" as="geometry" />
        </mxCell>
        <mxCell id="wsbvk6EjyKYahkIG3gAJ-40" value="&lt;span style=&quot;font-kerning: none;&quot; class=&quot;OYPEnA font-feature-liga-off font-feature-clig-off font-feature-calt-off text-decoration-none text-strikethrough-none&quot;&gt;Show list of clinical protocol&lt;/span&gt;" style="rounded=1;whiteSpace=wrap;html=1;fontSize=7;strokeWidth=1;opacity=60;" vertex="1" parent="1">
          <mxGeometry x="540" y="560" width="50" height="20" as="geometry" />
        </mxCell>
        <mxCell id="wsbvk6EjyKYahkIG3gAJ-41" value="&lt;span style=&quot;font-kerning: none;&quot; class=&quot;OYPEnA font-feature-liga-off font-feature-clig-off font-feature-calt-off text-decoration-none text-strikethrough-none&quot;&gt;Show clinical protocol description&lt;/span&gt;" style="rounded=1;whiteSpace=wrap;html=1;fontSize=7;strokeWidth=1;opacity=60;" vertex="1" parent="1">
          <mxGeometry x="700" y="560" width="70" height="20" as="geometry" />
        </mxCell>
        <mxCell id="wsbvk6EjyKYahkIG3gAJ-42" value="&lt;span style=&quot;font-kerning: none;&quot; class=&quot;OYPEnA font-feature-liga-off font-feature-clig-off font-feature-calt-off text-decoration-none text-strikethrough-none&quot;&gt;Choose a clincal protocol&lt;/span&gt;" style="rounded=1;whiteSpace=wrap;html=1;fontSize=7;strokeWidth=1;opacity=60;" vertex="1" parent="1">
          <mxGeometry x="620" y="500" width="50" height="20" as="geometry" />
        </mxCell>
        <mxCell id="wsbvk6EjyKYahkIG3gAJ-43" value="&lt;span style=&quot;font-weight: 700; font-kerning: normal;&quot; class=&quot;OYPEnA font-feature-liga-off font-feature-clig-off font-feature-calt-off text-decoration-none text-strikethrough-none&quot;&gt;Main flow 3: Doctor choose a clinical protocol for a patient&lt;/span&gt;" style="text;html=1;align=center;verticalAlign=middle;whiteSpace=wrap;rounded=0;" vertex="1" parent="1">
          <mxGeometry x="160" y="620" width="340" height="20" as="geometry" />
        </mxCell>
        <mxCell id="wsbvk6EjyKYahkIG3gAJ-58" value="&lt;span style=&quot;font-kerning: none;&quot; class=&quot;OYPEnA font-feature-liga-off font-feature-clig-off font-feature-calt-off text-decoration-none text-strikethrough-none&quot;&gt;Modify clinical protocol attributes&lt;/span&gt;" style="rounded=1;whiteSpace=wrap;html=1;fontSize=7;strokeWidth=1;opacity=60;" vertex="1" parent="1">
          <mxGeometry x="800" y="500" width="60" height="20" as="geometry" />
        </mxCell>
        <mxCell id="wsbvk6EjyKYahkIG3gAJ-59" value="&lt;span style=&quot;font-kerning: none;&quot; class=&quot;OYPEnA font-feature-liga-off font-feature-clig-off font-feature-calt-off text-decoration-none text-strikethrough-none&quot;&gt;Show confirm message&lt;/span&gt;" style="rounded=1;whiteSpace=wrap;html=1;fontSize=7;strokeWidth=1;opacity=60;" vertex="1" parent="1">
          <mxGeometry x="890" y="560" width="50" height="20" as="geometry" />
        </mxCell>
        <mxCell id="wsbvk6EjyKYahkIG3gAJ-61" value="&lt;span style=&quot;font-kerning: none;&quot; class=&quot;OYPEnA font-feature-liga-off font-feature-clig-off font-feature-calt-off text-decoration-none text-strikethrough-none&quot;&gt;Confirm clinical protocal for patient&lt;/span&gt;" style="rounded=1;whiteSpace=wrap;html=1;fontSize=7;strokeWidth=1;opacity=60;" vertex="1" parent="1">
          <mxGeometry x="970" y="500" width="60" height="20" as="geometry" />
        </mxCell>
        <mxCell id="wsbvk6EjyKYahkIG3gAJ-62" value="&lt;span style=&quot;font-kerning: none;&quot; class=&quot;OYPEnA font-feature-liga-off font-feature-clig-off font-feature-calt-off text-decoration-none text-strikethrough-none&quot;&gt;End&lt;/span&gt;" style="rounded=1;whiteSpace=wrap;html=1;fontSize=7;strokeWidth=1;opacity=60;" vertex="1" parent="1">
          <mxGeometry x="770" y="335" width="50" height="20" as="geometry" />
        </mxCell>
        <mxCell id="wsbvk6EjyKYahkIG3gAJ-63" value="&lt;span style=&quot;font-kerning: none;&quot; class=&quot;OYPEnA font-feature-liga-off font-feature-clig-off font-feature-calt-off text-decoration-none text-strikethrough-none&quot;&gt;End&lt;/span&gt;" style="rounded=1;whiteSpace=wrap;html=1;fontSize=7;strokeWidth=1;opacity=60;" vertex="1" parent="1">
          <mxGeometry x="1090" y="535" width="50" height="20" as="geometry" />
        </mxCell>
        <mxCell id="wsbvk6EjyKYahkIG3gAJ-64" value="" style="endArrow=classic;html=1;rounded=0;exitX=1;exitY=0.5;exitDx=0;exitDy=0;entryX=0;entryY=0.5;entryDx=0;entryDy=0;" edge="1" parent="1" source="wsbvk6EjyKYahkIG3gAJ-19" target="wsbvk6EjyKYahkIG3gAJ-17">
          <mxGeometry width="50" height="50" relative="1" as="geometry">
            <mxPoint x="360" y="490" as="sourcePoint" />
            <mxPoint x="410" y="440" as="targetPoint" />
          </mxGeometry>
        </mxCell>
        <mxCell id="wsbvk6EjyKYahkIG3gAJ-65" value="" style="endArrow=classic;html=1;rounded=0;exitX=1;exitY=0.5;exitDx=0;exitDy=0;entryX=0;entryY=0.5;entryDx=0;entryDy=0;edgeStyle=orthogonalEdgeStyle;" edge="1" parent="1" source="wsbvk6EjyKYahkIG3gAJ-17" target="wsbvk6EjyKYahkIG3gAJ-21">
          <mxGeometry width="50" height="50" relative="1" as="geometry">
            <mxPoint x="200" y="460" as="sourcePoint" />
            <mxPoint x="250" y="410" as="targetPoint" />
            <Array as="points">
              <mxPoint x="170" y="310" />
              <mxPoint x="170" y="370" />
            </Array>
          </mxGeometry>
        </mxCell>
        <mxCell id="wsbvk6EjyKYahkIG3gAJ-67" value="" style="endArrow=classic;html=1;rounded=0;exitX=1;exitY=0.5;exitDx=0;exitDy=0;entryX=0;entryY=0.5;entryDx=0;entryDy=0;edgeStyle=orthogonalEdgeStyle;" edge="1" parent="1" source="wsbvk6EjyKYahkIG3gAJ-21" target="wsbvk6EjyKYahkIG3gAJ-22">
          <mxGeometry width="50" height="50" relative="1" as="geometry">
            <mxPoint x="260" y="370" as="sourcePoint" />
            <mxPoint x="290" y="430" as="targetPoint" />
            <Array as="points">
              <mxPoint x="250" y="370" />
              <mxPoint x="250" y="310" />
            </Array>
          </mxGeometry>
        </mxCell>
        <mxCell id="wsbvk6EjyKYahkIG3gAJ-68" value="" style="endArrow=classic;html=1;rounded=0;exitX=1;exitY=0.5;exitDx=0;exitDy=0;entryX=0;entryY=0.5;entryDx=0;entryDy=0;edgeStyle=orthogonalEdgeStyle;" edge="1" parent="1">
          <mxGeometry width="50" height="50" relative="1" as="geometry">
            <mxPoint x="450" y="370" as="sourcePoint" />
            <mxPoint x="480" y="310" as="targetPoint" />
            <Array as="points">
              <mxPoint x="460" y="370" />
              <mxPoint x="460" y="310" />
            </Array>
          </mxGeometry>
        </mxCell>
        <mxCell id="wsbvk6EjyKYahkIG3gAJ-69" value="" style="endArrow=classic;html=1;rounded=0;exitX=1;exitY=0.5;exitDx=0;exitDy=0;entryX=0;entryY=0.5;entryDx=0;entryDy=0;edgeStyle=orthogonalEdgeStyle;" edge="1" parent="1">
          <mxGeometry width="50" height="50" relative="1" as="geometry">
            <mxPoint x="350" y="310" as="sourcePoint" />
            <mxPoint x="380" y="370" as="targetPoint" />
            <Array as="points">
              <mxPoint x="360" y="310" />
              <mxPoint x="360" y="370" />
            </Array>
          </mxGeometry>
        </mxCell>
        <mxCell id="wsbvk6EjyKYahkIG3gAJ-70" value="" style="endArrow=classic;html=1;rounded=0;exitX=1;exitY=0.5;exitDx=0;exitDy=0;entryX=0;entryY=0.5;entryDx=0;entryDy=0;edgeStyle=orthogonalEdgeStyle;" edge="1" parent="1">
          <mxGeometry width="50" height="50" relative="1" as="geometry">
            <mxPoint x="590" y="370" as="sourcePoint" />
            <mxPoint x="620" y="310" as="targetPoint" />
            <Array as="points">
              <mxPoint x="600" y="370" />
              <mxPoint x="600" y="310" />
            </Array>
          </mxGeometry>
        </mxCell>
        <mxCell id="wsbvk6EjyKYahkIG3gAJ-71" value="" style="endArrow=classic;html=1;rounded=0;exitX=1;exitY=0.5;exitDx=0;exitDy=0;entryX=0;entryY=0.5;entryDx=0;entryDy=0;edgeStyle=orthogonalEdgeStyle;" edge="1" parent="1">
          <mxGeometry width="50" height="50" relative="1" as="geometry">
            <mxPoint x="510" y="310" as="sourcePoint" />
            <mxPoint x="540" y="370" as="targetPoint" />
            <Array as="points">
              <mxPoint x="520" y="310" />
              <mxPoint x="520" y="370" />
            </Array>
          </mxGeometry>
        </mxCell>
        <mxCell id="wsbvk6EjyKYahkIG3gAJ-72" value="" style="endArrow=classic;html=1;rounded=0;exitX=1;exitY=0.5;exitDx=0;exitDy=0;entryX=0;entryY=0.5;entryDx=0;entryDy=0;edgeStyle=orthogonalEdgeStyle;" edge="1" parent="1" target="wsbvk6EjyKYahkIG3gAJ-62">
          <mxGeometry width="50" height="50" relative="1" as="geometry">
            <mxPoint x="710" y="310" as="sourcePoint" />
            <mxPoint x="740" y="370" as="targetPoint" />
            <Array as="points">
              <mxPoint x="750" y="310" />
              <mxPoint x="750" y="345" />
            </Array>
          </mxGeometry>
        </mxCell>
        <mxCell id="wsbvk6EjyKYahkIG3gAJ-73" value="" style="endArrow=classic;html=1;rounded=0;exitX=1;exitY=0.5;exitDx=0;exitDy=0;entryX=0;entryY=0.5;entryDx=0;entryDy=0;edgeStyle=orthogonalEdgeStyle;" edge="1" parent="1">
          <mxGeometry width="50" height="50" relative="1" as="geometry">
            <mxPoint x="160" y="109.99000000000001" as="sourcePoint" />
            <mxPoint x="190" y="169.99" as="targetPoint" />
            <Array as="points">
              <mxPoint x="170" y="109.99000000000001" />
              <mxPoint x="170" y="169.99" />
            </Array>
          </mxGeometry>
        </mxCell>
        <mxCell id="wsbvk6EjyKYahkIG3gAJ-74" value="" style="endArrow=classic;html=1;rounded=0;exitX=1;exitY=0.5;exitDx=0;exitDy=0;entryX=0;entryY=0.5;entryDx=0;entryDy=0;edgeStyle=orthogonalEdgeStyle;" edge="1" parent="1">
          <mxGeometry width="50" height="50" relative="1" as="geometry">
            <mxPoint x="240" y="169.99" as="sourcePoint" />
            <mxPoint x="270" y="109.99000000000001" as="targetPoint" />
            <Array as="points">
              <mxPoint x="250" y="169.99" />
              <mxPoint x="250" y="109.99000000000001" />
            </Array>
          </mxGeometry>
        </mxCell>
        <mxCell id="wsbvk6EjyKYahkIG3gAJ-75" value="" style="endArrow=classic;html=1;rounded=0;exitX=1;exitY=0.5;exitDx=0;exitDy=0;entryX=0;entryY=0.5;entryDx=0;entryDy=0;edgeStyle=orthogonalEdgeStyle;" edge="1" parent="1">
          <mxGeometry width="50" height="50" relative="1" as="geometry">
            <mxPoint x="330" y="109.99000000000001" as="sourcePoint" />
            <mxPoint x="360" y="169.99" as="targetPoint" />
            <Array as="points">
              <mxPoint x="340" y="109.99000000000001" />
              <mxPoint x="340" y="169.99" />
            </Array>
          </mxGeometry>
        </mxCell>
        <mxCell id="wsbvk6EjyKYahkIG3gAJ-76" value="" style="endArrow=classic;html=1;rounded=0;exitX=1;exitY=0.5;exitDx=0;exitDy=0;entryX=0;entryY=0.5;entryDx=0;entryDy=0;edgeStyle=orthogonalEdgeStyle;" edge="1" parent="1">
          <mxGeometry width="50" height="50" relative="1" as="geometry">
            <mxPoint x="410" y="169.99" as="sourcePoint" />
            <mxPoint x="440" y="109.99000000000001" as="targetPoint" />
            <Array as="points">
              <mxPoint x="420" y="169.99" />
              <mxPoint x="420" y="109.99000000000001" />
            </Array>
          </mxGeometry>
        </mxCell>
        <mxCell id="wsbvk6EjyKYahkIG3gAJ-77" value="" style="endArrow=classic;html=1;rounded=0;exitX=1;exitY=0.5;exitDx=0;exitDy=0;entryX=0;entryY=0.5;entryDx=0;entryDy=0;edgeStyle=orthogonalEdgeStyle;" edge="1" parent="1">
          <mxGeometry width="50" height="50" relative="1" as="geometry">
            <mxPoint x="490" y="109.97999999999999" as="sourcePoint" />
            <mxPoint x="520" y="169.98" as="targetPoint" />
            <Array as="points">
              <mxPoint x="500" y="109.97999999999999" />
              <mxPoint x="500" y="169.98" />
            </Array>
          </mxGeometry>
        </mxCell>
        <mxCell id="wsbvk6EjyKYahkIG3gAJ-78" value="" style="endArrow=classic;html=1;rounded=0;exitX=1;exitY=0.5;exitDx=0;exitDy=0;entryX=0;entryY=0.5;entryDx=0;entryDy=0;edgeStyle=orthogonalEdgeStyle;" edge="1" parent="1">
          <mxGeometry width="50" height="50" relative="1" as="geometry">
            <mxPoint x="570" y="169.99" as="sourcePoint" />
            <mxPoint x="600" y="109.99" as="targetPoint" />
            <Array as="points">
              <mxPoint x="580" y="169.99" />
              <mxPoint x="580" y="109.99" />
            </Array>
          </mxGeometry>
        </mxCell>
        <mxCell id="wsbvk6EjyKYahkIG3gAJ-79" value="" style="endArrow=classic;html=1;rounded=0;exitX=1;exitY=0.5;exitDx=0;exitDy=0;entryX=0;entryY=0.5;entryDx=0;entryDy=0;edgeStyle=orthogonalEdgeStyle;" edge="1" parent="1" target="wsbvk6EjyKYahkIG3gAJ-13">
          <mxGeometry width="50" height="50" relative="1" as="geometry">
            <mxPoint x="630" y="100" as="sourcePoint" />
            <mxPoint x="700" y="135" as="targetPoint" />
            <Array as="points">
              <mxPoint x="670" y="100" />
              <mxPoint x="670" y="135" />
            </Array>
          </mxGeometry>
        </mxCell>
        <mxCell id="wsbvk6EjyKYahkIG3gAJ-80" value="" style="endArrow=classic;html=1;rounded=0;exitX=1;exitY=0.5;exitDx=0;exitDy=0;entryX=0;entryY=0.5;entryDx=0;entryDy=0;" edge="1" parent="1">
          <mxGeometry width="50" height="50" relative="1" as="geometry">
            <mxPoint x="100" y="509.84000000000003" as="sourcePoint" />
            <mxPoint x="120" y="509.84000000000003" as="targetPoint" />
          </mxGeometry>
        </mxCell>
        <mxCell id="wsbvk6EjyKYahkIG3gAJ-81" value="" style="endArrow=classic;html=1;rounded=0;exitX=1;exitY=0.5;exitDx=0;exitDy=0;entryX=0;entryY=0.5;entryDx=0;entryDy=0;edgeStyle=orthogonalEdgeStyle;" edge="1" parent="1">
          <mxGeometry width="50" height="50" relative="1" as="geometry">
            <mxPoint x="160" y="509.99" as="sourcePoint" />
            <mxPoint x="190" y="569.99" as="targetPoint" />
            <Array as="points">
              <mxPoint x="170" y="509.99" />
              <mxPoint x="170" y="569.99" />
            </Array>
          </mxGeometry>
        </mxCell>
        <mxCell id="wsbvk6EjyKYahkIG3gAJ-83" value="" style="endArrow=classic;html=1;rounded=0;exitX=1;exitY=0.5;exitDx=0;exitDy=0;entryX=0;entryY=0.5;entryDx=0;entryDy=0;edgeStyle=orthogonalEdgeStyle;" edge="1" parent="1">
          <mxGeometry width="50" height="50" relative="1" as="geometry">
            <mxPoint x="240" y="569.99" as="sourcePoint" />
            <mxPoint x="270" y="509.99" as="targetPoint" />
            <Array as="points">
              <mxPoint x="250" y="569.99" />
              <mxPoint x="250" y="509.99" />
            </Array>
          </mxGeometry>
        </mxCell>
        <mxCell id="wsbvk6EjyKYahkIG3gAJ-84" value="" style="endArrow=classic;html=1;rounded=0;exitX=1;exitY=0.5;exitDx=0;exitDy=0;entryX=0;entryY=0.5;entryDx=0;entryDy=0;edgeStyle=orthogonalEdgeStyle;" edge="1" parent="1">
          <mxGeometry width="50" height="50" relative="1" as="geometry">
            <mxPoint x="320" y="509.99" as="sourcePoint" />
            <mxPoint x="350" y="569.99" as="targetPoint" />
            <Array as="points">
              <mxPoint x="330" y="509.99" />
              <mxPoint x="330" y="569.99" />
            </Array>
          </mxGeometry>
        </mxCell>
        <mxCell id="wsbvk6EjyKYahkIG3gAJ-85" value="" style="endArrow=classic;html=1;rounded=0;exitX=1;exitY=0.5;exitDx=0;exitDy=0;entryX=0;entryY=0.5;entryDx=0;entryDy=0;edgeStyle=orthogonalEdgeStyle;" edge="1" parent="1">
          <mxGeometry width="50" height="50" relative="1" as="geometry">
            <mxPoint x="420" y="569.99" as="sourcePoint" />
            <mxPoint x="450" y="509.99" as="targetPoint" />
            <Array as="points">
              <mxPoint x="430" y="569.99" />
              <mxPoint x="430" y="509.99" />
            </Array>
          </mxGeometry>
        </mxCell>
        <mxCell id="wsbvk6EjyKYahkIG3gAJ-88" value="" style="endArrow=classic;html=1;rounded=0;exitX=1;exitY=0.5;exitDx=0;exitDy=0;entryX=0;entryY=0.5;entryDx=0;entryDy=0;edgeStyle=orthogonalEdgeStyle;" edge="1" parent="1">
          <mxGeometry width="50" height="50" relative="1" as="geometry">
            <mxPoint x="510" y="509.99" as="sourcePoint" />
            <mxPoint x="540" y="569.99" as="targetPoint" />
            <Array as="points">
              <mxPoint x="520" y="509.99" />
              <mxPoint x="520" y="569.99" />
            </Array>
          </mxGeometry>
        </mxCell>
        <mxCell id="wsbvk6EjyKYahkIG3gAJ-89" value="" style="endArrow=classic;html=1;rounded=0;exitX=1;exitY=0.5;exitDx=0;exitDy=0;entryX=0;entryY=0.5;entryDx=0;entryDy=0;edgeStyle=orthogonalEdgeStyle;" edge="1" parent="1">
          <mxGeometry width="50" height="50" relative="1" as="geometry">
            <mxPoint x="590" y="569.99" as="sourcePoint" />
            <mxPoint x="620" y="509.99" as="targetPoint" />
            <Array as="points">
              <mxPoint x="600" y="569.99" />
              <mxPoint x="600" y="509.99" />
            </Array>
          </mxGeometry>
        </mxCell>
        <mxCell id="wsbvk6EjyKYahkIG3gAJ-90" value="" style="endArrow=classic;html=1;rounded=0;exitX=1;exitY=0.5;exitDx=0;exitDy=0;entryX=0;entryY=0.5;entryDx=0;entryDy=0;edgeStyle=orthogonalEdgeStyle;" edge="1" parent="1">
          <mxGeometry width="50" height="50" relative="1" as="geometry">
            <mxPoint x="670" y="509.99" as="sourcePoint" />
            <mxPoint x="700" y="569.99" as="targetPoint" />
            <Array as="points">
              <mxPoint x="680" y="509.99" />
              <mxPoint x="680" y="569.99" />
            </Array>
          </mxGeometry>
        </mxCell>
        <mxCell id="wsbvk6EjyKYahkIG3gAJ-92" value="" style="endArrow=classic;html=1;rounded=0;exitX=1;exitY=0.5;exitDx=0;exitDy=0;entryX=0;entryY=0.5;entryDx=0;entryDy=0;edgeStyle=orthogonalEdgeStyle;" edge="1" parent="1">
          <mxGeometry width="50" height="50" relative="1" as="geometry">
            <mxPoint x="770" y="569.99" as="sourcePoint" />
            <mxPoint x="800" y="509.99" as="targetPoint" />
            <Array as="points">
              <mxPoint x="780" y="569.99" />
              <mxPoint x="780" y="509.99" />
            </Array>
          </mxGeometry>
        </mxCell>
        <mxCell id="wsbvk6EjyKYahkIG3gAJ-93" value="" style="endArrow=classic;html=1;rounded=0;exitX=1;exitY=0.5;exitDx=0;exitDy=0;entryX=0;entryY=0.5;entryDx=0;entryDy=0;edgeStyle=orthogonalEdgeStyle;" edge="1" parent="1">
          <mxGeometry width="50" height="50" relative="1" as="geometry">
            <mxPoint x="860" y="509.99" as="sourcePoint" />
            <mxPoint x="890" y="569.99" as="targetPoint" />
            <Array as="points">
              <mxPoint x="870" y="509.99" />
              <mxPoint x="870" y="569.99" />
            </Array>
          </mxGeometry>
        </mxCell>
        <mxCell id="wsbvk6EjyKYahkIG3gAJ-94" value="" style="endArrow=classic;html=1;rounded=0;exitX=1;exitY=0.5;exitDx=0;exitDy=0;entryX=0;entryY=0.5;entryDx=0;entryDy=0;edgeStyle=orthogonalEdgeStyle;" edge="1" parent="1">
          <mxGeometry width="50" height="50" relative="1" as="geometry">
            <mxPoint x="940" y="569.99" as="sourcePoint" />
            <mxPoint x="970" y="509.99" as="targetPoint" />
            <Array as="points">
              <mxPoint x="950" y="569.99" />
              <mxPoint x="950" y="509.99" />
            </Array>
          </mxGeometry>
        </mxCell>
        <mxCell id="wsbvk6EjyKYahkIG3gAJ-95" value="" style="endArrow=classic;html=1;rounded=0;exitX=1;exitY=0.5;exitDx=0;exitDy=0;entryX=0;entryY=0.5;entryDx=0;entryDy=0;edgeStyle=orthogonalEdgeStyle;" edge="1" parent="1">
          <mxGeometry width="50" height="50" relative="1" as="geometry">
            <mxPoint x="1030" y="510" as="sourcePoint" />
            <mxPoint x="1090" y="545" as="targetPoint" />
            <Array as="points">
              <mxPoint x="1070" y="510" />
              <mxPoint x="1070" y="545" />
            </Array>
          </mxGeometry>
        </mxCell>
      </root>
    </mxGraphModel>
  </diagram>
</mxfile>
